<?xml version="1.0" standalone="no"?>
<!DOCTYPE svg PUBLIC "-//W3C//DTD SVG 1.1//EN" "http://www.w3.org/Graphics/SVG/1.1/DTD/svg11.dtd">
<svg width="100%" height="100%" viewBox="0 0 930 363" version="1.1" xmlns="http://www.w3.org/2000/svg" xmlns:xlink="http://www.w3.org/1999/xlink" xml:space="preserve" style="fill-rule:evenodd;clip-rule:evenodd;stroke-linejoin:round;stroke-miterlimit:1.41421;">
    <g transform="matrix(4.16667,0,0,4.16667,0,-1)">
        <path d="M68.293,80.861L79.226,81.139L53.121,11.582L40.993,41.048L52.3,41.048C53.521,41.048 54.61,41.82 55.014,42.972L68.293,80.861ZM7.221,81.247L18.225,81.247L32.404,46.801L21.833,46.801L7.221,81.247ZM20.152,87L2.876,87C1.911,87 1.011,86.517 0.477,85.713C-0.054,84.908 -0.148,83.888 0.228,83L17.28,42.8C17.732,41.738 18.773,41.048 19.928,41.048L34.771,41.048L50.585,2.63C51.034,1.537 52.131,0.897 53.29,0.848C54.472,0.867 55.522,1.606 55.938,2.713L86.112,83.113C86.448,84.009 86.316,85.014 85.762,85.791C85.207,86.571 84.301,87.008 83.345,87L66.163,86.562C64.968,86.531 63.917,85.764 63.521,84.636L50.26,46.801L38.625,46.801L22.811,85.218C22.368,86.297 21.318,87 20.152,87Z" style="fill:rgb(0,174,239);fill-rule:nonzero;"/>
        <path d="M122.916,83.059C127.995,83.059 132.002,81.608 134.935,78.703C137.869,75.798 139.336,71.763 139.336,66.596L139.336,61.911L131.016,62.261C124.331,62.583 119.566,63.626 116.72,65.392C113.874,67.158 112.451,69.909 112.451,73.646C112.451,76.623 113.363,78.937 115.188,80.586C117.011,82.235 119.588,83.059 122.916,83.059ZM140.43,86.125L139.336,78.594L138.985,78.594C136.591,81.658 134.132,83.826 131.607,85.096C129.082,86.366 126.097,87 122.653,87C117.982,87 114.348,85.804 111.75,83.41C109.152,81.017 107.853,77.703 107.853,73.47C107.853,68.829 109.787,65.225 113.655,62.656C117.523,60.087 123.119,58.729 130.447,58.583L139.511,58.32L139.511,55.168C139.511,50.643 138.591,47.228 136.752,44.922C134.913,42.616 131.95,41.463 127.864,41.463C123.456,41.463 118.887,42.689 114.158,45.141L112.539,41.376C117.763,38.923 122.93,37.697 128.039,37.697C133.264,37.697 137.168,39.054 139.751,41.769C142.335,44.484 143.627,48.717 143.627,54.467L143.627,86.125L140.43,86.125Z" style="fill:rgb(124,125,125);fill-rule:nonzero;"/>
        <path d="M172.342,86.125L168.007,86.125L168.007,38.53L172.342,38.53L172.342,86.125ZM167.394,25.306C167.394,22.504 168.313,21.102 170.153,21.102C171.057,21.102 171.765,21.468 172.277,22.197C172.787,22.927 173.042,23.964 173.042,25.306C173.042,26.619 172.787,27.656 172.277,28.415C171.765,29.174 171.057,29.553 170.153,29.553C168.313,29.553 167.394,28.138 167.394,25.306Z" style="fill:rgb(124,125,125);fill-rule:nonzero;"/>
        <path d="M215.988,37.61C218.002,37.61 220.162,37.815 222.468,38.223L221.636,42.383C219.651,41.887 217.593,41.638 215.462,41.638C211.404,41.638 208.077,43.361 205.479,46.805C202.88,50.25 201.582,54.599 201.582,59.853L201.582,86.125L197.247,86.125L197.247,38.53L200.926,38.53L201.363,47.112L201.67,47.112C203.625,43.609 205.713,41.149 207.931,39.733C210.149,38.318 212.835,37.61 215.988,37.61Z" style="fill:rgb(124,125,125);fill-rule:nonzero;"/>
    </g>
</svg>
