<?xml version="1.0" standalone="no"?>
<!DOCTYPE svg PUBLIC "-//W3C//DTD SVG 1.1//EN" "http://www.w3.org/Graphics/SVG/1.1/DTD/svg11.dtd">
<svg width="100%" height="100%" viewBox="0 0 363 363" version="1.1" xmlns="http://www.w3.org/2000/svg" xmlns:xlink="http://www.w3.org/1999/xlink" xml:space="preserve" style="fill-rule:evenodd;clip-rule:evenodd;stroke-linejoin:round;stroke-miterlimit:1.41421;">
    <g transform="matrix(4.16667,0,0,4.16667,1,-2)">
        <g>
            <path d="M68.293,80.861L79.226,81.139L53.121,11.582L40.993,41.048L52.3,41.048C53.521,41.048 54.61,41.82 55.014,42.972L68.293,80.861ZM7.221,81.247L18.225,81.247L32.404,46.801L21.833,46.801L7.221,81.247ZM20.152,87L2.876,87C1.911,87 1.011,86.517 0.477,85.713C-0.054,84.908 -0.148,83.888 0.228,83L17.28,42.8C17.732,41.738 18.773,41.048 19.928,41.048L34.771,41.048L50.585,2.63C51.034,1.537 52.131,0.897 53.29,0.848C54.472,0.867 55.522,1.606 55.938,2.713L86.112,83.113C86.448,84.009 86.316,85.014 85.762,85.791C85.207,86.571 84.301,87.008 83.345,87L66.163,86.562C64.968,86.531 63.917,85.764 63.521,84.636L50.26,46.801L38.625,46.801L22.811,85.218C22.368,86.297 21.318,87 20.152,87Z" style="fill:rgb(0,174,239);fill-rule:nonzero;"/>
        </g>
    </g>
</svg>
